<?xml version="1.0" encoding="utf-8"?>
<!-- Generator: Adobe Illustrator 16.0.0, SVG Export Plug-In . SVG Version: 6.00 Build 0)  -->
<!DOCTYPE svg PUBLIC "-//W3C//DTD SVG 1.1//EN" "http://www.w3.org/Graphics/SVG/1.1/DTD/svg11.dtd">
<svg version="1.1" id="Layer_1" xmlns="http://www.w3.org/2000/svg" xmlns:xlink="http://www.w3.org/1999/xlink" x="0px" y="0px"
	 width="871px" height="302.094px" viewBox="0 -0.094 871 302.094" enable-background="new 0 -0.094 871 302.094"
	 xml:space="preserve">
<g id="layer101">
	<path fill="#CC3300" d="M24,300.6c-11.3-2.5-24-7.8-24-10c0-1.1,10.4-21.1,11.6-22.5c0.2-0.199,3.9,1.2,8.1,3.2
		C28.5,275.4,34.4,276.9,41,277c10.3,0,18.4-4.9,18.4-11.2c0-6.1-3.2-8.899-19.2-17.2C12.9,234.4,5.9,226.3,5.9,208.2
		c0-8.5,0.6-11.3,4.4-18.5c10.2-19.4,36.4-25.8,68-16.601c7.8,2.301,8,2.7,3.8,11.601c-4.5,9.399-9.4,11.7-22,10
		c-4-0.5-9.4-0.601-11.9-0.2c-9.2,1.4-13.2,9.8-7.7,16.3c1.5,1.8,9,6.3,18.7,11.3c18.1,9.301,25.5,15.4,29.8,24.4
		c2.1,4.3,2.4,6.5,2.5,15.5c0,9.4-0.3,11.1-2.7,16.3c-5.1,10.8-17.3,19.8-30.6,22.601C51.3,302.3,31,302.1,24,300.6z"/>
	<path fill="#CC3300" d="M108,236v-65h15.5H139l0.2,25.7l0.3,25.6l19.3-25.6L178,171h18c9.9,0,18,0.4,18,0.8c0,0.5-7.5,10-16.7,21.3
		c-9.1,11.2-20.2,24.801-24.5,30.101l-7.9,9.7l26,33.1c14.4,18.1,26.1,33.2,26.1,33.5s-8.7,0.5-19.2,0.5l-19.3-0.1L159,273.2
		l-19.5-26.7l-0.6,18c-0.6,19.5-1.4,23.2-6.7,28.9c-4.2,4.5-11.8,7.6-18.4,7.6H108V236z"/>
	<path fill="#E31C39" d="M420.8,300c-9.5-2.9-15.2-10.6-15.2-20.9c-0.1-8.1,2.301-13.199,8.301-17.8c5.6-4.3,12.5-6.3,24.399-7
		c10.8-0.7,11.4-1.2,8.101-7.399c-2.801-5.5-10.601-7.2-20-4.4c-2.7,0.8-6.601,1.5-8.601,1.5c-3.3,0-4.2-0.6-6.8-4.2l-3.1-4.2
		l2.3-1.8c4.899-3.7,13.1-6,23.1-6.6c16.601-0.8,26,2.8,30.9,12c2,4,2.3,6.2,2.899,27.8c0.4,12.9,1.101,25.3,1.4,27.6l0.7,4.101
		l-4.5,0.6c-5.3,0.7-10.2-0.5-13.2-3.3l-2.2-2l-2.6,2C441.1,300.4,428.6,302.4,420.8,300z M444.4,283.2c3-1.7,3.1-2.101,3.399-9.101
		l0.3-7.399l-8.1,0.5c-6,0.399-8.8,1-10.8,2.5c-8.4,6.2-3,17.2,7.7,15.899C439.3,285.2,442.7,284.2,444.4,283.2z"/>
	<path fill="#E31C39" d="M497.2,299.4c-1.8-0.9-4.3-3.101-5.5-4.801c-2.101-3-2.2-4.1-2.5-27.8l-0.3-24.8H482h-7v-7v-7h6.9h6.8
		l0.6-6.2c0.8-9.2,5.3-14.1,14-15.2l4.7-0.6v11v11h10.1c9.2,0,10.101,0.2,9.4,1.8c-0.4,0.9-1.6,4.101-2.7,7l-2.1,5.2h-7.3H508v19.4
		c0,16.3,0.3,19.699,1.6,21c2.5,2.5,6.2,3,10.5,1.3l3.9-1.5v3.399c0,5-2.3,9.801-6,12.4C513.6,301.1,502.1,301.9,497.2,299.4z"/>
	<path fill="#E31C39" d="M556.5,300c-16-3.9-24.6-16.3-24.6-35.3c-0.101-13.7,3.6-23.5,11.6-30.5c5.7-5,11.9-7.2,20.4-7.2
		c19.8,0,30.5,11.4,32.6,34.8l0.7,7.2h-23.5H550.1l0.9,3.1c1.6,5.601,4.5,9.4,9,11.7c4.7,2.4,5.1,2.4,21.8,0.601
		c5.101-0.601,5.4-0.5,8.7,3.1c1.9,2,3.5,4.2,3.5,4.9c0,1.8-6.7,5.3-13.5,7.1C574.4,301.1,561.8,301.4,556.5,300z M577,254.8
		c-0.1-2.6-3.9-9.6-6.1-11.2C563.1,238.2,553.2,242.7,551,252.7l-0.8,3.3H563.6C573.7,256,577,255.7,577,254.8z"/>
	<path fill="#E31C39" d="M715.8,300c-9.5-2.9-15.2-10.6-15.2-20.9c-0.1-8.1,2.301-13.199,8.301-17.8c5.6-4.3,12.5-6.3,24.399-7
		c10.8-0.7,11.4-1.2,8.101-7.399c-2.801-5.5-10.601-7.2-20-4.4c-2.7,0.8-6.601,1.5-8.601,1.5c-3.3,0-4.2-0.6-6.8-4.2l-3.1-4.2
		l2.3-1.8c4.899-3.7,13.1-6,23.1-6.6c16.601-0.8,26,2.8,30.9,12c2,4,2.3,6.2,2.899,27.8c0.4,12.9,1.101,25.3,1.4,27.6l0.7,4.101
		l-4.5,0.6c-5.3,0.7-10.2-0.5-13.2-3.3l-2.2-2l-2.6,2C736.1,300.4,723.6,302.4,715.8,300z M739.4,283.2c3-1.7,3.1-2.101,3.399-9.101
		l0.3-7.399l-8.1,0.5c-6,0.399-8.8,1-10.8,2.5c-8.4,6.2-3,17.2,7.7,15.899C734.3,285.2,737.7,284.2,739.4,283.2z"/>
	<path fill="#E31C39" d="M784,299.7c-1.3-0.7-3.5-2.8-4.7-4.601L777,291.7v-49.8V192h4.3c4.8,0,9.8,2.6,12.4,6.7
		c1.6,2.5,1.8,6.2,2.1,43.5l0.3,40.8l2.4,1.6c1.9,1.2,3.1,1.301,6,0.5l3.7-1L807.6,288.2c-0.899,5.3-3.1,9.1-6.6,11.2
		C797.6,301.3,787.6,301.5,784,299.7z"/>
	<path fill="#E31C39" d="M828,299.6c-4.2-1.1-12-4.5-12-5.1c0-0.8,6.3-13.5,6.6-13.5c0.301,0,2.801,1.2,5.601,2.6
		c5.8,2.9,14.899,4.101,19,2.5c1.5-0.5,3.5-2.199,4.399-3.6c1.601-2.5,1.601-2.7-0.3-5.3c-1.2-1.7-5.5-4.2-11.2-6.7
		c-15.3-6.7-19.1-11.1-19.1-22c0-13.5,9.3-20.6,27-20.6c9.1,0,17.7,1.5,20.4,3.399c1.399,1,1.5,1.7,0.5,4.7
		c-0.7,1.9-2.101,4.6-3.301,5.8c-2.199,2.5-2.3,2.5-15.699,0.601c-8.4-1.2-14.101,4.399-9.101,8.899c0.9,0.9,5.601,3.2,10.3,5.2
		c9.7,4,16.5,9.2,18.5,14.2c1.801,4.2,1.801,13.399,0,17.6c-1.899,4.601-7.8,9.4-13.8,11.2C849.6,301.3,834.4,301.4,828,299.6z"/>
	<path fill="#E31C39" d="M280.7,266.8c-0.2-18.3-0.7-34.3-1.1-35.5c-0.7-1.899-0.4-2.2,3.7-2.8c5.6-0.9,11,0.8,13.6,4.2l2,2.5
		l3.399-2.601C312.4,224.9,329.8,225.2,338.4,233.4l3.3,3.1l3.8-2.7c15.9-11.6,37.2-7.899,44.2,7.7c1.5,3.5,1.8,7.7,2.1,31.3
		l0.3,27.2h-9.5h-9.5l-0.3-23.9c-0.3-26.899-0.5-27.699-8.2-31.5c-4.399-2.199-9.5-1.3-15.1,2.601l-3.5,2.3v25.3V300h-9.5H327v-23.5
		c0-25.3-0.4-27.6-5.2-30.7c-4.3-2.899-8.3-3.1-13.5-0.8c-8.8,3.9-8.3,2.1-8.3,30.2V300h-9.4h-9.5L280.7,266.8z"/>
	<path fill="#E31C39" d="M608.7,267.8c-0.3-17.8-0.9-33.8-1.2-35.5l-0.7-3.3h5.7c5.2,0,6,0.3,9.1,3.4l3.4,3.399l5.1-3.399
		c6.101-4,11.9-5.801,16.801-4.9c3.6,0.6,9.1,2.5,9.1,3.1c0,0.101-1.6,3.7-3.5,8c-2.9,6.4-3.8,7.5-5.2,6.801
		c-1-0.5-4.1-0.9-6.899-0.9c-3.9,0-6,0.6-9.2,2.8L627,250v25v25h-8.9H609.2L608.7,267.8z"/>
	<path fill="#E31C39" d="M668,264.5V229h9.5h9.5v35.5V300h-9.5H668V264.5z"/>
	<path fill="#E31C39" d="M672.4,218c-5.7-2.3-8-10-4.9-16c2-3.8,4.3-5,10-5c4,0,5.2,0.5,8.1,3.4C694.4,209.2,684.2,222.8,672.4,218z
		"/>
	<path fill="#E31C39" d="M257.1,196.4c-0.9-2.101-0.8-3,0.8-5.301c5.1-7.1,7.5-18.1,8.7-39.3c0.6-11.7,2.1-15.8,6.7-19.2
		c2.6-1.9,4.8-2.2,23.5-2.8c25.601-0.8,34.5-2.9,54.2-12.8l8.1-4.1l3.2,2.2c7.101,5,20.101,16.6,22.4,20c1.899,2.8,2.2,4.2,1.5,5.6
		C384.9,143,264.6,199,260.9,199C259.1,199,258,198.2,257.1,196.4z"/>
	<path fill="#CC3300" d="M250.7,179.7c-2.3-6-9.2-18.5-16.6-30.1c-1.4-2.2,0.4-7.7,18.3-57c2-5.5,3.5-9.8,3.2-9.5
		c-0.2,0.2-9.9,12.1-21.5,26.4l-21.2,26H199c-7.7,0-14-0.2-14-0.5s1.4-1.4,3.1-2.5c3.8-2.5,9.5-10.1,11.3-15.1
		c3.7-10.8,2.6-20.8-4.3-36c-4.7-10.6-6.6-18.1-5.6-23.2c1.7-9.5,7.6-17.2,16.3-21.6c8.7-4.3,9.1-4.3,17.3,2.7
		c10.1,8.6,23.2,22.7,29.9,32c5.2,7.2,5.7,7.6,9.4,7.7c13.9,0.1,41.6,6.5,59.1,13.6c12.9,5.3,31.7,15.4,31.2,16.9
		c-1,3.1-20.101,10.9-33.2,13.6c-6.6,1.4-13.3,1.9-25,1.9c-18.2,0-22.6,0.9-27.1,5.4c-4,4-5.1,8.2-5.9,21.6
		c-0.9,15.2-2.4,24.8-4.7,30.3c-1.1,2.601-2.3,4.7-2.7,4.7C253.8,187,252.2,183.7,250.7,179.7z"/>
	<path fill="#E31C39" d="M154.3,140.2c-0.6-0.4-1.4-1.8-1.7-3.2c-1.4-6.1-14.8-134.1-14.2-135.6c1.6-4.2,22.8,1.2,43.1,11.1
		c11.9,5.8,27.5,15.1,27.5,16.4c0,0.5-2.1,1.6-4.7,2.6c-6.7,2.6-16.4,12.5-18.6,18.9c-2,5.7-2.2,13.3-0.6,19.1
		c0.6,2.2,3.2,8.7,5.7,14.5c3.9,8.9,4.6,11.7,5,18.6c0.3,6,0,9.5-1.3,13.3c-1.9,5.9-8.8,14-14.9,17.6
		C171.7,138.1,157.1,142,154.3,140.2z"/>
</g>
<g id="layer102">
	<path fill="#FF6600" d="M420.8,300c-9.5-2.9-15.2-10.6-15.2-20.9c-0.1-8.1,2.301-13.199,8.301-17.8c5.6-4.3,12.5-6.3,24.399-7
		c10.8-0.7,11.4-1.2,8.101-7.399c-2.801-5.5-10.601-7.2-20-4.4c-2.7,0.8-6.601,1.5-8.601,1.5c-3.3,0-4.2-0.6-6.8-4.2l-3.1-4.2
		l2.3-1.8c4.899-3.7,13.1-6,23.1-6.6c16.601-0.8,26,2.8,30.9,12c2,4,2.3,6.2,2.899,27.8c0.4,12.9,1.101,25.3,1.4,27.6l0.7,4.101
		l-4.5,0.6c-5.3,0.7-10.2-0.5-13.2-3.3l-2.2-2l-2.6,2C441.1,300.4,428.6,302.4,420.8,300z M444.4,283.2c3-1.7,3.1-2.101,3.399-9.101
		l0.3-7.399l-8.1,0.5c-6,0.399-8.8,1-10.8,2.5c-8.4,6.2-3,17.2,7.7,15.899C439.3,285.2,442.7,284.2,444.4,283.2z"/>
	<path fill="#FF6600" d="M497.2,299.4c-1.8-0.9-4.3-3.101-5.5-4.801c-2.101-3-2.2-4.1-2.5-27.8l-0.3-24.8H482h-7v-7v-7h6.9h6.8
		l0.6-6.2c0.8-9.2,5.3-14.1,14-15.2l4.7-0.6v11v11h10.1c9.2,0,10.101,0.2,9.4,1.8c-0.4,0.9-1.6,4.101-2.7,7l-2.1,5.2h-7.3H508v19.4
		c0,16.3,0.3,19.699,1.6,21c2.5,2.5,6.2,3,10.5,1.3l3.9-1.5v3.399c0,5-2.3,9.801-6,12.4C513.6,301.1,502.1,301.9,497.2,299.4z"/>
	<path fill="#FF6600" d="M556.5,300c-16-3.9-24.6-16.3-24.6-35.3c-0.101-13.7,3.6-23.5,11.6-30.5c5.7-5,11.9-7.2,20.4-7.2
		c19.8,0,30.5,11.4,32.6,34.8l0.7,7.2h-23.5H550.1l0.9,3.1c1.6,5.601,4.5,9.4,9,11.7c4.7,2.4,5.1,2.4,21.8,0.601
		c5.101-0.601,5.4-0.5,8.7,3.1c1.9,2,3.5,4.2,3.5,4.9c0,1.8-6.7,5.3-13.5,7.1C574.4,301.1,561.8,301.4,556.5,300z M577,254.8
		c-0.1-2.6-3.9-9.6-6.1-11.2C563.1,238.2,553.2,242.7,551,252.7l-0.8,3.3H563.6C573.7,256,577,255.7,577,254.8z"/>
	<path fill="#FF6600" d="M715.8,300c-9.5-2.9-15.2-10.6-15.2-20.9c-0.1-8.1,2.301-13.199,8.301-17.8c5.6-4.3,12.5-6.3,24.399-7
		c10.8-0.7,11.4-1.2,8.101-7.399c-2.801-5.5-10.601-7.2-20-4.4c-2.7,0.8-6.601,1.5-8.601,1.5c-3.3,0-4.2-0.6-6.8-4.2l-3.1-4.2
		l2.3-1.8c4.899-3.7,13.1-6,23.1-6.6c16.601-0.8,26,2.8,30.9,12c2,4,2.3,6.2,2.899,27.8c0.4,12.9,1.101,25.3,1.4,27.6l0.7,4.101
		l-4.5,0.6c-5.3,0.7-10.2-0.5-13.2-3.3l-2.2-2l-2.6,2C736.1,300.4,723.6,302.4,715.8,300z M739.4,283.2c3-1.7,3.1-2.101,3.399-9.101
		l0.3-7.399l-8.1,0.5c-6,0.399-8.8,1-10.8,2.5c-8.4,6.2-3,17.2,7.7,15.899C734.3,285.2,737.7,284.2,739.4,283.2z"/>
	<path fill="#FF6600" d="M784,299.7c-1.3-0.7-3.5-2.8-4.7-4.601L777,291.7v-49.8V192h4.3c4.8,0,9.8,2.6,12.4,6.7
		c1.6,2.5,1.8,6.2,2.1,43.5l0.3,40.8l2.4,1.6c1.9,1.2,3.1,1.301,6,0.5l3.7-1L807.6,288.2c-0.899,5.3-3.1,9.1-6.6,11.2
		C797.6,301.3,787.6,301.5,784,299.7z"/>
	<path fill="#FF6600" d="M828,299.6c-4.2-1.1-12-4.5-12-5.1c0-0.8,6.3-13.5,6.6-13.5c0.301,0,2.801,1.2,5.601,2.6
		c5.8,2.9,14.899,4.101,19,2.5c1.5-0.5,3.5-2.199,4.399-3.6c1.601-2.5,1.601-2.7-0.3-5.3c-1.2-1.7-5.5-4.2-11.2-6.7
		c-15.3-6.7-19.1-11.1-19.1-22c0-13.5,9.3-20.6,27-20.6c9.1,0,17.7,1.5,20.4,3.399c1.399,1,1.5,1.7,0.5,4.7
		c-0.7,1.9-2.101,4.6-3.301,5.8c-2.199,2.5-2.3,2.5-15.699,0.601c-8.4-1.2-14.101,4.399-9.101,8.899c0.9,0.9,5.601,3.2,10.3,5.2
		c9.7,4,16.5,9.2,18.5,14.2c1.801,4.2,1.801,13.399,0,17.6c-1.899,4.601-7.8,9.4-13.8,11.2C849.6,301.3,834.4,301.4,828,299.6z"/>
	<path fill="#FF6600" d="M280.7,266.8c-0.2-18.3-0.7-34.3-1.1-35.5c-0.7-1.899-0.4-2.2,3.7-2.8c5.6-0.9,11,0.8,13.6,4.2l2,2.5
		l3.399-2.601C312.4,224.9,329.8,225.2,338.4,233.4l3.3,3.1l3.8-2.7c15.9-11.6,37.2-7.899,44.2,7.7c1.5,3.5,1.8,7.7,2.1,31.3
		l0.3,27.2h-9.5h-9.5l-0.3-23.9c-0.3-26.899-0.5-27.699-8.2-31.5c-4.399-2.199-9.5-1.3-15.1,2.601l-3.5,2.3v25.3V300h-9.5H327v-23.5
		c0-25.3-0.4-27.6-5.2-30.7c-4.3-2.899-8.3-3.1-13.5-0.8c-8.8,3.9-8.3,2.1-8.3,30.2V300h-9.4h-9.5L280.7,266.8z"/>
	<path fill="#FF6600" d="M608.7,267.8c-0.3-17.8-0.9-33.8-1.2-35.5l-0.7-3.3h5.7c5.2,0,6,0.3,9.1,3.4l3.4,3.399l5.1-3.399
		c6.101-4,11.9-5.801,16.801-4.9c3.6,0.6,9.1,2.5,9.1,3.1c0,0.101-1.6,3.7-3.5,8c-2.9,6.4-3.8,7.5-5.2,6.801
		c-1-0.5-4.1-0.9-6.899-0.9c-3.9,0-6,0.6-9.2,2.8L627,250v25v25h-8.9H609.2L608.7,267.8z"/>
	<path fill="#FF6600" d="M668,264.5V229h9.5h9.5v35.5V300h-9.5H668V264.5z"/>
	<path fill="#FF6600" d="M672.4,218c-5.7-2.3-8-10-4.9-16c2-3.8,4.3-5,10-5c4,0,5.2,0.5,8.1,3.4C694.4,209.2,684.2,222.8,672.4,218z
		"/>
	<path fill="#FF6600" d="M257.1,196.4c-0.9-2.101-0.8-3,0.8-5.301c5.1-7.1,7.5-18.1,8.7-39.3c0.6-11.7,2.1-15.8,6.7-19.2
		c2.6-1.9,4.8-2.2,23.5-2.8c25.601-0.8,34.5-2.9,54.2-12.8l8.1-4.1l3.2,2.2c7.101,5,20.101,16.6,22.4,20c1.899,2.8,2.2,4.2,1.5,5.6
		C384.9,143,264.6,199,260.9,199C259.1,199,258,198.2,257.1,196.4z"/>
	<path fill="#FF6600" d="M154.3,140.2c-0.6-0.4-1.4-1.8-1.7-3.2c-1.4-6.1-14.8-134.1-14.2-135.6c1.6-4.2,22.8,1.2,43.1,11.1
		c11.9,5.8,27.5,15.1,27.5,16.4c0,0.5-2.1,1.6-4.7,2.6c-6.7,2.6-16.4,12.5-18.6,18.9c-2,5.7-2.2,13.3-0.6,19.1
		c0.6,2.2,3.2,8.7,5.7,14.5c3.9,8.9,4.6,11.7,5,18.6c0.3,6,0,9.5-1.3,13.3c-1.9,5.9-8.8,14-14.9,17.6
		C171.7,138.1,157.1,142,154.3,140.2z"/>
</g>
</svg>
