<?xml version="1.0" encoding="utf-8"?>
<!-- Generator: Adobe Illustrator 16.0.0, SVG Export Plug-In . SVG Version: 6.00 Build 0)  -->
<!DOCTYPE svg PUBLIC "-//W3C//DTD SVG 1.1//EN" "http://www.w3.org/Graphics/SVG/1.1/DTD/svg11.dtd">
<svg version="1.1" id="Capa_1" xmlns="http://www.w3.org/2000/svg" xmlns:xlink="http://www.w3.org/1999/xlink" x="0px" y="0px"
	 width="512px" height="512px" viewBox="0 0 512 512" enable-background="new 0 0 512 512" xml:space="preserve">
<g>
	<path fill="#FFFFFF" d="M505.586,250.004c9.281-10.207,8.385-25.853-2.001-34.935L274.766,14.851
		c-10.387-9.083-27.038-8.893-37.206,0.429L7.963,225.744c-10.167,9.321-10.667,24.946-1.105,34.885l5.756,5.995
		c9.55,9.938,24.986,11.124,34.456,2.639l17.159-15.366v224.966c0,13.803,11.184,24.977,24.976,24.977h89.498
		c13.792,0,24.976-11.174,24.976-24.977V321.477h114.155v157.386c-0.198,13.792,9.67,24.967,23.463,24.967h94.845
		c13.793,0,24.977-11.175,24.977-24.977V257.064c0,0,4.74,4.152,10.587,9.291c5.836,5.129,18.095,1.016,27.376-9.201
		L505.586,250.004z"/>
</g>
</svg>
