<?xml version="1.0" encoding="utf-8"?>
<!-- Generator: Adobe Illustrator 16.0.0, SVG Export Plug-In . SVG Version: 6.00 Build 0)  -->
<!DOCTYPE svg PUBLIC "-//W3C//DTD SVG 1.1//EN" "http://www.w3.org/Graphics/SVG/1.1/DTD/svg11.dtd">
<svg version="1.1" id="Capa_1" xmlns="http://www.w3.org/2000/svg" xmlns:xlink="http://www.w3.org/1999/xlink" x="0px" y="0px"
	 width="512px" height="512px" viewBox="0 0 512 512" enable-background="new 0 0 512 512" xml:space="preserve">
<g>
	<g>
		<path fill="#FFFFFF" d="M22.15,233.865C9.938,233.865,0,243.803,0,256.016c0,12.199,9.93,22.136,22.15,22.136h93.248v-44.288
			H22.15z"/>
		<path fill="#FFFFFF" d="M438.197,57.713H189.226c-40.708,0-73.826,33.103-73.826,73.803v2.31v100.03h199.5l-42.665-42.669
			c-8.622-8.638-8.622-22.688,0-31.322c4.183-4.182,9.734-6.488,15.647-6.488c5.936,0,11.488,2.307,15.678,6.488l80.475,80.479
			c2.021,2.013,3.618,4.398,4.761,7.099c1.183,2.909,1.73,5.716,1.73,8.571c0,2.848-0.54,5.659-1.645,8.351
			c-1.182,2.845-2.78,5.217-4.785,7.261l-80.537,80.521c-4.206,4.182-9.774,6.477-15.678,6.477c-5.905,0-11.49-2.295-15.655-6.477
			c-8.623-8.654-8.623-22.703,0-31.333l42.673-42.665H115.398v24.222v44.476v33.651c0,40.684,33.12,73.787,73.826,73.787h248.972
			c40.707,0,73.803-33.104,73.803-73.787V131.525C512,90.816,478.905,57.713,438.197,57.713z"/>
	</g>
</g>
</svg>
