<?xml version="1.0" encoding="utf-8"?>
<!-- Generator: Adobe Illustrator 16.0.0, SVG Export Plug-In . SVG Version: 6.00 Build 0)  -->
<!DOCTYPE svg PUBLIC "-//W3C//DTD SVG 1.1//EN" "http://www.w3.org/Graphics/SVG/1.1/DTD/svg11.dtd">
<svg version="1.1" id="Capa_1" xmlns="http://www.w3.org/2000/svg" xmlns:xlink="http://www.w3.org/1999/xlink" x="0px" y="0px"
	 width="512px" height="512px" viewBox="0 0 512 512" enable-background="new 0 0 512 512" xml:space="preserve">
<g>
	<g>
		<path fill="#FFFFFF" d="M477.118,41.736l-17.434-15.425C440.709,9.495,416.282,0.231,390.9,0.231
			c-29.704,0-58.011,12.713-77.664,34.883l-49.896,56.305c-6.426,7.237-9.646,16.547-9.06,26.208
			c0.586,9.647,4.885,18.499,12.123,24.916l4.671,4.147c6.63,5.888,15.173,9.128,24.041,9.128l2.162-0.063
			c9.646-0.58,18.505-4.88,24.942-12.128l49.907-56.311c8.78-9.911,25.438-10.906,35.365-2.132l17.427,15.459
			c4.997,4.423,7.968,10.547,8.373,17.244c0.406,6.691-1.813,13.119-6.249,18.111L317.896,259.121
			c-7.349,8.301-20.395,10.697-30.242,5.623c-15.342-7.914-35.343-4.137-46.722,8.689l-0.856,0.975
			c-7.97,8.965-11.29,20.879-9.129,32.736c2.183,11.785,9.521,21.893,20.158,27.459c14.721,7.695,31.325,11.925,48.016,11.925h0.013
			c29.69,0,58.01-12.88,77.674-35.056l109.134-123.19C523.873,145.481,519.935,79.706,477.118,41.736z"/>
		<path fill="#FFFFFF" d="M240.887,365.696c-14.386-12.738-38.338-11.307-51.124,3.093l-49.884,56.294
			c-8.78,9.906-25.427,10.933-35.343,2.15L87.09,411.756c-4.996-4.428-7.967-10.551-8.373-17.242
			c-0.407-6.682,1.813-13.107,6.247-18.099l109.135-123.114c7.237-8.172,20.047-10.642,29.783-5.858
			c15.915,7.839,36.162,4.018,48.467-9.91c7.823-8.814,11.109-20.52,9.037-32.062c-2.06-11.61-9.206-21.459-19.596-27.014
			c-14.946-8.003-31.863-12.234-48.905-12.234c-29.705,0-58.011,12.718-77.665,34.891L26.072,324.207
			c-37.955,42.801-34.004,108.493,8.8,146.447l17.434,15.242c18.967,16.817,43.393,25.872,68.775,25.872c0.012,0,0,0,0.012,0
			c29.705,0,58.023-12.514,77.687-34.688l49.875-56.181c6.437-7.248,9.658-16.515,9.07-26.121
			c-0.561-9.545-4.985-18.623-12.144-24.951L240.887,365.696z"/>
	</g>
</g>
</svg>
